<?xml version="1.0" encoding="utf-8"?>
<!-- Generated by IcoMoon.io -->
<!DOCTYPE svg PUBLIC "-//W3C//DTD SVG 1.1//EN" "http://www.w3.org/Graphics/SVG/1.1/DTD/svg11.dtd">
<svg version="1.1" xmlns="http://www.w3.org/2000/svg" xmlns:xlink="http://www.w3.org/1999/xlink" width="24" height="24" viewBox="0 0 24 24">
<path fill="#444" d="M21.37 3.95c-3.298 3.355-6.096 7.090-8.712 10.93-1.685 2.477-3.283 5.016-4.949 7.56-0.072-0.096-7.685-10.565-7.685-10.565s1.19-1.042 1.781-1.56c1.949 1.325 5.904 4.032 5.904 4.032s0.893-1.094 1.334-1.627c3.528-4.166 7.416-7.968 12.053-11.021 0.048-0.038 0.173-0.091 0.216-0.144 0.816 0 2.664 0.005 2.664 0.005s-0.086 0.096-0.082 0.096c-0.84 0.768-1.728 1.493-2.525 2.294z"></path>
</svg>
