<?xml version="1.0" encoding="utf-8"?>
<!-- Generator: Adobe Illustrator 19.0.0, SVG Export Plug-In . SVG Version: 6.00 Build 0)  -->
<svg version="1.1" id="Layer_1" xmlns="http://www.w3.org/2000/svg" xmlns:xlink="http://www.w3.org/1999/xlink" x="0px" y="0px"
	 viewBox="0 0 554.2 176" style="enable-background:new 0 0 554.2 176;" xml:space="preserve">
<style type="text/css">
	.st0{fill:none;}
	.st1{fill:#FFFFFF;}
</style>
<g>
	<path class="st0" d="M348,110.2c0,0.5,0,0.9,0,1.4h0c0.2,24,5,33.3,20.3,33.8c9.7-0.3,24-3.5,24-3.5v-30.3h0V79
		c0,0-13.6-2.2-24.3-2.2C355.7,76.8,348,85.7,348,110.2z"/>
	<path class="st1" d="M56.5,96.6c-18.6-3-23.3-4.5-23.3-10.2c0-6.7,3-9.7,17.3-9.7c14.4,0,45.1,4,45.1,4L96.1,53
		c0,0-30.2-6.2-48-6.2c-26,0-48,11.6-48,40.4c0,11,2.5,18.7,7.8,24.4c7.3,7.9,20,11.8,38.8,15c17.3,3,20.1,5,20.1,10.4
		c0,6.4-4.2,9.4-20.1,9.4c-12.6,0-43.3-4-43.3-4l-1,28c0,0,29.2,5.9,47.5,5.9c31,0,50-11.1,50-40.1c0-10.8-2-18.7-6.9-24.6
		C86.5,103.8,75.1,99.5,56.5,96.6z"/>
	<polygon class="st1" points="128.1,111.5 128.1,173.3 161.2,173.3 161.2,111.5 161.2,0 128.1,0 	"/>
	<polygon class="st1" points="194.5,111.5 194.5,173.3 227.6,173.3 227.6,111.5 227.6,49.8 194.5,49.8 	"/>
	<path class="st1" d="M392.4,50c0,0-17.6-3.2-26.7-3.2c-33.7,0-51.2,18.6-51.2,63.4c0,0.5,0,0.9,0,1.4h0
		c0.2,42.4,11.3,64.5,48.3,64.5c12.6,0,29.7-7.7,29.7-7.7v5h33.2v-61.8h0V0h-33.2V50z M392.4,111.5L392.4,111.5l0,30.3
		c0,0-14.4,3.2-24,3.5c-15.3-0.5-20.1-9.8-20.3-33.8h0c0-0.5,0-0.9,0-1.4c0-24.5,7.7-33.4,20.1-33.4c10.6,0,24.3,2.2,24.3,2.2V111.5
		z"/>
	<path class="st1" d="M275.7,126.2c-13,0-23.6,10.6-23.6,23.6c0,13,10.6,23.6,23.6,23.6c13,0,23.6-10.6,23.6-23.6
		C299.2,136.7,288.7,126.2,275.7,126.2z"/>
	<path class="st1" d="M554.2,113c0,37.2-13.5,63.3-55.5,63.3c-42,0-55.5-26.1-55.5-63.3c0-37.2,13.5-63,55.5-63
		C540.7,50,554.2,75.8,554.2,113z M521.4,113c0-22.2-4.8-33.8-22.7-33.8c-17.9,0-22.7,11.6-22.7,33.8c0,22.2,4.8,34,22.7,34
		C516.6,147,521.4,135.2,521.4,113z"/>
</g>
</svg>
