<?xml version="1.0" encoding="UTF-8" standalone="no"?>
<svg width="1600px" height="700px" viewBox="0 0 1600 700" version="1.1" xmlns="http://www.w3.org/2000/svg" xmlns:xlink="http://www.w3.org/1999/xlink">
    <!-- Generator: Sketch 39.1 (31720) - http://www.bohemiancoding.com/sketch -->
    <title>Sections / hero-cover</title>
    <desc>Created with Sketch.</desc>
    <defs>
        <polygon id="path-1" points="144.824651 0.520113128 0.506396825 0.520113128 0.506396825 98.7492619 144.824651 98.7492619 144.824651 0.520113128"></polygon>
        <polygon id="path-3" points="0.000193650794 12.6382629 182.097587 12.6382629 182.097587 0.754795949 0.000193650794 0.754795949"></polygon>
    </defs>
    <g id="Symbols" stroke="none" stroke-width="1" fill="none" fill-rule="evenodd">
        <g id="Sections-/-hero-cover">
            <g id="Group-4" transform="translate(-82.000000, -49.000000)">
                <g id="HEADER" transform="translate(82.000000, 49.000000)"></g>
                <g id="hero-icons">
                    <path d="M1650.80666,48.252687 C1649.63966,46.833687 1648.04166,44.822687 1648.04166,42.772687 L1648.04166,36.242687 C1648.04166,30.617687 1643.83466,26.039687 1638.45766,26.039687 C1633.07966,26.039687 1628.90566,30.616687 1628.90566,36.242687 L1628.90566,42.772687 C1628.90566,44.788687 1627.17166,46.694687 1626.07266,48.172687 C1625.08366,49.500687 1624.30266,50.550687 1624.83066,51.599687 C1625.29366,52.522687 1626.45466,52.640687 1627.41366,52.640687 L1633.14366,52.640687 C1633.14566,55.584687 1635.53266,57.971687 1638.47766,57.971687 C1641.42266,57.971687 1643.80966,55.585687 1643.81166,52.640687 L1649.67566,52.640687 C1650.28566,52.640687 1651.71166,52.640687 1652.20266,51.602687 C1652.69766,50.552687 1651.90566,49.586687 1650.80766,48.251687 L1650.80666,48.252687 Z M1638.47566,55.875687 C1636.68766,55.875687 1635.23666,54.427687 1635.23466,52.639687 L1641.71666,52.639687 C1641.71366,54.426687 1640.26466,55.875687 1638.47566,55.875687 L1638.47566,55.875687 Z M1649.67566,50.511687 L1627.41366,50.511687 C1627.26066,50.511687 1627.13266,50.506687 1627.02766,50.499687 C1627.23366,50.180687 1627.53566,49.772687 1627.78266,49.441687 C1629.00066,47.804687 1631.03766,45.492687 1631.03766,42.772687 L1631.03766,36.242687 C1631.03766,31.790687 1634.25766,28.169687 1638.46066,28.169687 C1642.66366,28.169687 1645.91566,31.791687 1645.91566,36.242687 L1645.91566,42.772687 C1645.91566,45.585687 1647.79366,47.936687 1649.16466,49.604687 C1649.39566,49.885687 1649.67266,50.221687 1649.88766,50.509687 C1649.82366,50.511687 1649.75366,50.512687 1649.67866,50.512687 L1649.67566,50.511687 Z" id="Shape" fill="#FFFFFF" opacity="0.5" transform="translate(1638.506912, 42.005687) rotate(-345.000000) translate(-1638.506912, -42.005687) "></path>
                    <g id="untitled12" opacity="0.5" transform="translate(145.395184, 282.395184) rotate(-135.000000) translate(-145.395184, -282.395184) translate(129.395184, 263.895184)" fill="#FFFFFF">
                        <path d="M31.8768667,2.30467647 L31.8768667,1.26544118 C31.8768667,0.632264706 31.3691333,0.118382353 30.7435333,0.118382353 L22.7875333,0.118382353 C22.1619333,0.118382353 21.6542,0.632264706 21.6542,1.26544118 L21.6542,5.94888235 C21.6542,5.95117647 21.6553333,5.95232353 21.6553333,5.95461765 L21.6553333,20.2045294 C21.6553333,23.6571765 19.7309333,26.4651765 16.3196,26.4651765 C12.9082667,26.4651765 10.3458,23.6571765 10.3458,20.2045294 L10.3458,2.30582353 L10.3424,2.30582353 L10.3424,1.26658824 C10.3424,0.633411765 9.8358,0.119529412 9.20906667,0.119529412 L1.2542,0.119529412 C0.627466667,0.119529412 0.120866667,0.633411765 0.120866667,1.26658824 L0.120866667,5.95002941 C0.120866667,5.97411765 0.1322,5.99247059 0.133333333,6.01655882 L0.133333333,20.7310294 C0.133333333,29.654 7.1736,36.8850588 15.9875333,36.8850588 C24.8014667,36.8850588 31.8768667,29.6528529 31.8768667,20.7310294 L31.8768667,2.30697059 L31.8746,2.30697059 L31.8768667,2.30467647 Z M29.6102,2.41135294 L29.6102,7.01220588 L23.9344667,7.01220588 L23.9344667,2.41135294 L29.6102,2.41135294 L29.6102,2.41135294 Z M8.07686667,2.41135294 L8.07686667,7.01220588 L2.40113333,7.01220588 L2.40113333,2.41135294 L8.07686667,2.41135294 L8.07686667,2.41135294 Z M15.9886667,34.5886471 C8.43726667,34.5886471 2.40113333,28.3704412 2.40113333,20.7287353 L2.40113333,9.30517647 L8.08026667,9.30517647 L8.08026667,20.2010882 C8.08026667,24.9258235 11.6525333,28.7558529 16.3207333,28.7558529 C20.9889333,28.7558529 23.9242667,24.9258235 23.9242667,20.2010882 L23.9242667,9.30517647 L29.6136,9.30517647 L29.6136,20.7287353 C29.6136,28.3704412 23.5423333,34.5886471 15.9898,34.5886471 L15.9886667,34.5886471 Z" id="Shape"></path>
                    </g>
                    <g id="untitled35" opacity="0.5" transform="translate(729.000000, 74.000000)" fill="#FFFFFF">
                        <path d="M12.888,31.977 C5.349,31.977 0.002,26.75 0.002,19.546 C0.002,15.722 2.295,11.602 2.392,11.43 C2.591,11.076 2.982,10.883 3.39,10.928 C3.794,10.98 4.126,11.271 4.23,11.664 C4.236,11.688 4.854,14 5.669,15.284 C6.217,16.148 6.773,16.758 7.398,17.182 C6.975,15.349 6.651,12.591 7.178,9.761 C8.626,1.993 14.74,0.134 15.002,0.06 C15.339,-0.037 15.697,0.05 15.953,0.284 C16.209,0.518 16.326,0.87 16.259,1.211 C16.249,1.265 15.239,6.704 17.382,11.338 C17.577,11.759 17.848,12.248 18.14,12.737 C18.223,12.065 18.352,11.351 18.55,10.657 C19.336,7.908 21.369,6.969 21.454,6.931 C21.793,6.777 22.189,6.827 22.481,7.057 C22.773,7.287 22.914,7.66 22.846,8.026 C22.835,8.094 22.552,9.964 24.144,12.618 C25.582,15.014 25.996,16.567 25.996,19.545 C25.996,26.748 20.482,31.975 12.885,31.975 L12.888,31.977 Z M3.115,14.615 C2.566,16 2,17.841 2,19.547 C2,25.591 6.506,29.978 12.886,29.978 C19.324,29.978 23.996,25.592 23.996,19.547 C23.996,16.936 23.673,15.725 22.429,13.648 C21.597,12.262 21.186,11.015 20.99,10.023 C20.792,10.344 20.608,10.735 20.473,11.207 C19.863,13.338 20.017,15.83 20.019,15.856 C20.048,16.302 19.777,16.715 19.355,16.864 C18.933,17.013 18.463,16.866 18.204,16.5 C18.129,16.393 16.35,13.876 15.567,12.18 C13.939,8.662 13.966,4.857 14.133,2.666 C12.485,3.626 9.956,5.77 9.144,10.132 C8.353,14.376 9.89,18.62 9.906,18.661 C10.039,19.007 9.969,19.4 9.725,19.679 C9.48,19.956 9.103,20.08 8.739,19.993 C8.615,19.963 5.801,19.231 3.978,16.359 C3.653,15.845 3.361,15.222 3.114,14.617 L3.115,14.615 Z" id="Shape"></path>
                    </g>
                    <path d="M105.017,522.97 L102.45,522.401 C102.25,521.761 101.988,521.149 101.688,520.56 L103.077,518.247 C103.595,517.418 103.857,516.2 103.077,515.418 L101.662,514.004 C100.882,513.223 99.563,513.364 98.767,513.916 L96.516,515.35 C95.932,515.047 95.321,514.787 94.687,514.582 L94.111,511.984 C93.939,511.031 93.106,510 92.001,510 L90.001,510 C88.897,510 88.22,511.047 88.001,512 L87.359,514.567 C86.681,514.783 86.031,515.059 85.411,515.386 L83.103,513.916 C82.308,513.364 80.989,513.224 80.209,514.004 L78.794,515.418 C78.013,516.2 78.275,517.418 78.794,518.246 L80.255,520.681 C79.981,521.233 79.738,521.804 79.55,522.401 L76.984,522.97 C76.031,523.141 75,523.975 75,525.079 L75,527.079 C75,528.184 76.047,528.861 77,529.079 L79.598,529.728 C79.777,530.279 80.002,530.808 80.256,531.321 L78.794,533.759 C78.276,534.587 78.014,535.806 78.794,536.587 L80.209,538.001 C80.989,538.783 82.307,538.641 83.103,538.09 L85.416,536.616 C86.039,536.945 86.693,537.224 87.376,537.439 L88.016,539.998 C88.235,540.951 88.912,541.998 90.016,541.998 L92.016,541.998 C93.121,541.998 93.954,540.966 94.126,540.013 L94.703,537.408 C95.331,537.205 95.933,536.949 96.511,536.65 L98.767,538.088 C99.563,538.64 100.881,538.78 101.662,537.999 L103.077,536.585 C103.857,535.803 103.595,534.585 103.077,533.757 L101.687,531.44 C101.966,530.891 102.208,530.32 102.403,529.726 L105.002,529.077 C105.955,528.858 107.002,528.182 107.002,527.077 L107.002,525.077 C107.002,523.973 105.971,523.139 105.017,522.967 L105.017,522.97 Z M105.003,526.939 C104.918,527 104.758,527.084 104.555,527.131 L100.847,528.057 L100.503,529.108 C100.348,529.582 100.146,530.062 99.905,530.536 L99.403,531.522 L101.362,534.789 C101.487,534.989 101.545,535.168 101.563,535.274 L100.247,536.588 C100.12,536.548 99.976,536.496 99.906,536.448 L96.614,534.349 L95.591,534.878 C95.098,535.134 94.592,535.346 94.088,535.509 L92.998,535.861 L92.174,539.584 C92.136,539.783 92.029,539.944 91.956,540.001 L90.156,540.001 C90.095,539.916 90.011,539.756 89.965,539.553 L89.044,535.872 L87.978,535.534 C87.429,535.361 86.881,535.13 86.348,534.85 L85.32,534.307 L82.027,536.406 C81.892,536.497 81.748,536.548 81.618,536.548 L80.307,535.272 C80.325,535.168 80.379,534.998 80.488,534.823 L82.533,531.415 L82.046,530.435 C81.819,529.973 81.639,529.54 81.499,529.11 L81.156,528.058 L77.485,527.14 C77.254,527.088 77.087,527.001 77,526.94 L77,525.08 C77.001,525.081 77.002,525.081 77.005,525.081 C77.039,525.081 77.203,524.964 77.34,524.939 L81.112,524.104 L81.458,523.001 C81.599,522.552 81.791,522.084 82.046,521.57 L82.533,520.59 L80.509,517.217 C80.384,517.016 80.325,516.837 80.308,516.732 L81.623,515.418 C81.751,515.459 81.894,515.511 81.963,515.558 L85.317,517.696 L86.344,517.154 C86.871,516.876 87.417,516.646 87.966,516.472 L89.029,516.134 L89.941,512.485 C89.994,512.254 90.079,512.087 90.141,512 L92,512 C91.986,512.021 92.115,512.195 92.142,512.34 L92.982,516.134 L94.071,516.486 C94.582,516.651 95.094,516.866 95.594,517.125 L96.617,517.657 L99.841,515.603 C99.976,515.511 100.12,515.46 100.25,515.46 L101.563,516.736 C101.546,516.84 101.49,517.012 101.382,517.186 L99.402,520.482 L99.907,521.47 C100.18,522.003 100.387,522.503 100.542,522.999 L100.888,524.103 L104.585,524.924 C104.809,524.965 104.983,525.095 105.019,525.165 L105.003,526.94 L105.003,526.939 Z M91.016,519.99 C87.695,519.99 84.993,522.687 84.993,526 C84.993,529.313 87.695,532.009 91.016,532.009 C94.337,532.009 97.039,529.312 97.039,526 C97.039,522.687 94.337,519.99 91.016,519.99 L91.016,519.99 Z M91.002,530 C88.796,530 87.002,528.206 87.002,526 C87.002,523.794 88.796,522 91.002,522 C93.208,522 95.002,523.794 95.002,526 C95.002,528.206 93.208,530 91.002,530 L91.002,530 Z" id="Shape" fill="#FFFFFF" opacity="0.5"></path>
                    <g id="spa-orbit-2" opacity="0.4" transform="translate(1337.000000, 0.000000)" stroke="#FFFFFF" stroke-width="2" stroke-linecap="round" stroke-linejoin="round">
                        <path d="M87.34375,65 C87.34375,77.3378125 77.3398438,87.34375 65,87.34375 C52.6601562,87.34375 42.65625,77.3378125 42.65625,65 C42.65625,52.6621875 52.6601562,42.65625 65,42.65625 C77.3398438,42.65625 87.34375,52.6621875 87.34375,65 L87.34375,65 Z" id="Stroke-180"></path>
                        <path d="M42.65625,93.4375 C42.65625,96.80125 39.9282812,99.53125 36.5625,99.53125 C33.1967188,99.53125 30.46875,96.80125 30.46875,93.4375 C30.46875,90.07375 33.1967188,87.34375 36.5625,87.34375 C39.9282812,87.34375 42.65625,90.07375 42.65625,93.4375 L42.65625,93.4375 Z" id="Stroke-181"></path>
                        <path d="M34.5966562,87.6750469 C34.0461875,82.0687969 37.00775,74.1002031 42.670875,65.7781719" id="Stroke-183" stroke-dasharray="3,6"></path>
                        <path d="M65.7785781,42.6700625 C77.3729531,34.7806875 88.2787344,32.1319375 93.0745156,36.92975 C99.6029531,43.454125 92.3229531,61.3189688 76.8184219,76.8194375 C64.5273281,89.1125625 50.7554531,96.234125 42.3257656,95.4033438" id="Stroke-184" stroke-dasharray="3,6"></path>
                        <path d="M86.7189375,13.5661094 C99.15425,8.87189062 109.641594,8.84751562 115.398156,14.6040781 C127.325656,26.5315781 114.431281,58.7654844 86.5970625,86.5976719 C58.764875,114.431891 26.533,127.324234 14.6034688,115.398766 C2.6739375,103.469234 15.5683125,71.2353281 43.4025313,43.4031406 C53.9751875,32.8284531 65.183625,24.4129844 75.673,18.6909531" id="Stroke-185" stroke-dasharray="3,6"></path>
                    </g>
                    <path d="M1676.001,537.036 C1676.001,535.932 1675.106,535.036 1674.001,535.036 L1670.587,535.036 C1671.471,534.164 1672.036,533.022 1672.036,531.615 C1672.036,529.883 1671.041,528 1668.248,528 C1664.573,528 1661.503,531.913 1660.06,534.106 C1658.616,531.913 1655.453,528 1651.778,528 C1648.985,528 1647.99,529.882 1647.99,531.614 C1647.99,533.021 1648.571,534.164 1649.472,535.035 L1646,535.035 C1644.895,535.035 1644,535.931 1644,537.035 L1644,543.021 L1646.018,543.021 L1646.018,556.038 C1646.018,557.143 1646.913,558.038 1648.018,558.038 L1672.008,558.038 C1673.113,558.038 1674.008,557.143 1674.008,556.038 L1674.008,543.02 L1676,543.02 L1676,537.034 L1676.001,537.036 Z M1668.248,530.002 C1669.484,530.002 1670.036,530.521 1670.036,531.617 C1670.036,533.838 1667.557,535.037 1665.225,535.037 L1661.839,535.037 C1663.26,532.926 1665.761,530.002 1668.248,530.002 L1668.248,530.002 Z M1651.778,530.002 C1654.266,530.002 1656.861,532.926 1658.282,535.036 L1654.896,535.036 C1652.564,535.036 1649.991,533.807 1649.991,531.585 C1649.991,530.49 1650.542,530.002 1651.779,530.002 L1651.778,530.002 Z M1674.001,541.023 L1661.001,541.023 L1661.001,537.037 L1674.001,537.037 L1674.001,541.023 L1674.001,541.023 Z M1646.001,537.036 L1659.001,537.036 L1659.001,541.022 L1646.001,541.022 L1646.001,537.036 L1646.001,537.036 Z M1648.019,543.023 L1659.001,543.023 L1659.001,556.041 L1648.019,556.041 L1648.019,543.024 L1648.019,543.023 Z M1672.009,556.041 L1661.001,556.041 L1661.001,543.024 L1672.009,543.024 L1672.009,556.041 L1672.009,556.041 Z" id="Shape" fill="#FFFFFF" opacity="0.4"></path>
                    <path d="M979.285204,37.7856505 C986.177815,37.7856505 991.784758,41.7908646 991.784758,46.7139031 C991.784758,51.6369415 986.177815,55.6421556 979.285204,55.6421556 L978.545052,55.6448341 C978.053998,55.6448341 977.733474,55.6314417 977.231706,55.5564444 L976.231742,55.4135924 L975.5898,56.1903503 C975.294275,56.5465876 973.788972,57.7840434 972.127424,58.5804436 C972.464912,57.6867255 972.71401,56.7108675 972.737224,55.7457234 L972.746152,55.6930467 L972.746152,54.4475554 L971.772972,53.9511446 C968.603443,52.3297739 966.786543,49.6923681 966.786543,46.7139031 C966.786543,41.7908646 972.393486,37.7856505 979.286097,37.7856505 L979.285204,37.7856505 Z M979.285204,36 C971.394414,36 965,40.7971501 965,46.7139031 C965,50.3985929 967.183851,53.6100854 970.959609,55.5403736 C970.959609,55.563587 970.952466,55.5796579 970.952466,55.6055498 C970.952466,57.2063855 970.055177,58.9670369 969.529303,59.8723617 L969.531088,59.8723617 C969.490018,59.9696797 969.465019,60.0768187 969.465019,60.1911003 C969.465019,60.6401914 969.826613,61 970.274812,61 C970.341774,61 970.449805,60.9866076 970.488197,60.9866076 C970.498018,60.9866076 970.502482,60.9866076 970.502482,60.9892861 C973.292561,60.5330524 976.360309,58.0688547 976.971001,57.3251312 C977.598657,57.4188779 978.021856,57.4322703 978.546838,57.4322703 C978.768258,57.4322703 979.006643,57.4295918 979.28699,57.4295918 C987.175994,57.4295918 993.572194,52.6333345 993.572194,46.7156887 C993.572194,40.7989358 987.175994,36.0017857 979.28699,36.0017857 L979.28699,36.0017857 L979.285204,36 Z" id="Shape" fill="#FFFFFF" opacity="0.4"></path>
                    <path d="M1464.3234,665.735741 C1464.19197,665.735741 1464.03302,665.772899 1463.84792,665.851342 L1443.31973,674.562041 C1442.58071,674.875816 1442.53392,675.479971 1443.21583,675.904531 L1449.01654,679.517761 C1449.69845,679.94232 1450.60055,680.852681 1451.0203,681.540096 L1454.49728,687.233462 C1454.69683,687.559623 1454.93767,687.722016 1455.16956,687.722016 C1455.42553,687.722016 1455.66981,687.525218 1455.83702,687.13644 L1464.61584,666.627523 C1464.85392,666.071535 1464.71768,665.735741 1464.32271,665.735741 L1464.3234,665.735741 Z M1449.73423,678.291561 L1445.03242,675.362993 L1460.80719,668.670501 L1450.65354,678.996179 C1450.3432,678.720937 1450.02805,678.475284 1449.73354,678.292249 L1449.73423,678.291561 Z M1455.04914,685.41687 L1452.24443,680.825845 C1452.0786,680.554732 1451.86047,680.265729 1451.61688,679.97879 L1461.81801,669.605634 L1455.04914,685.41687 L1455.04914,685.41687 Z" id="Shape" fill="#FFFFFF" opacity="0.4" transform="translate(1453.733435, 676.728878) rotate(17.000000) translate(-1453.733435, -676.728878) "></path>
                    <path d="M1509.008,671.627 C1401.375,775.355 1376.616,763.549 1348.007,761.669 C1309.093,755.871 1265.478,715.013 1316.971,685.774 C1341.7496,671.703514 1389.7807,684.754734 1389.32385,713.505853 C1388.91113,739.480098 1347.06703,778.031402 1246,825.21" id="Page-1" stroke="#FEFEFE" stroke-width="2" stroke-dasharray="10" opacity="0.4"></path>
                    <path d="M89.6848975,119.012801 C89.709793,118.857942 89.689716,118.698244 89.6222573,118.552257 C89.4198812,117.6594 88.7774175,117.198049 87.6908507,117.198049 L66.8107789,117.198049 C65.8551141,117.198049 64.8255659,117.551321 64.3188226,118.243346 C64.2754563,118.277222 64.2336962,118.314323 64.1959514,118.358684 C64.0337293,118.545805 63.9775138,118.787772 64.0136524,119.015221 C64.0064246,119.080552 64,119.145883 64,119.21444 L64,132.119339 C64,133.455803 65.4800759,134.942286 66.8107789,134.942286 L87.6908507,134.942286 C89.0215537,134.942286 89.6985499,133.455803 89.6985499,132.119339 L89.6985499,119.21444 C89.6985499,119.143463 89.6889129,119.080552 89.6848975,119.012801 L89.6848975,119.012801 Z M66.8107789,118.811162 L87.6908507,118.811162 L87.7020938,118.811162 L76.8492749,127.497772 L66.0406255,118.84665 C66.2863679,118.801483 66.5891289,118.811162 66.8107789,118.811162 L66.8107789,118.811162 Z M87.6908507,133.329174 L66.8107789,133.329174 C66.368282,133.329174 65.6061594,132.564558 65.6061594,132.119339 L65.6061594,120.564615 L76.3232577,129.176216 C76.4742367,129.307684 76.6613543,129.373015 76.8492749,129.373015 C77.0371956,129.373015 77.2243132,129.307684 77.3752921,129.176216 L88.0923905,120.565422 L88.0923905,132.120146 C88.0923905,132.565365 88.1341507,133.32998 87.6908507,133.32998 L87.6908507,133.329174 Z" id="Shape" fill="#FFFFFF" opacity="0.4" transform="translate(76.849275, 126.070168) rotate(-16.000000) translate(-76.849275, -126.070168) "></path>
                    <g id="Group" opacity="0.4" transform="translate(121.000000, 30.000000)" fill="#FFFFFF">
                        <path d="M20.6665768,30.479048 C31.8466819,30.479048 40.5109924,24.1903987 40.3762176,14.8581164 C40.3762176,6.60140358 31.5058723,0 20.3257671,0 C9.14566195,0 0.0816747815,6.60140358 0.0816747815,14.8581164 C0.0816747815,20.0010171 2.64239445,25.4841334 7.99155659,28.1768714 C7.99155659,28.2073841 7.98226179,28.2317941 7.98226179,28.265358 C7.98226179,30.5004068 6.09231744,33.5653987 5.34873278,34.8286208 L5.35183105,34.8286208 C5.29296394,34.9659276 5.25733384,35.1154394 5.25733384,35.274105 C5.25733384,35.8996135 5.76854829,36.401546 6.40369352,36.401546 C6.49819074,36.401546 6.65000594,36.3832384 6.70422565,36.3832384 C6.719717,36.3832384 6.7243644,36.3832384 6.7243644,36.3878153 C10.6777562,35.7516273 16.5164449,31.3700163 17.3808621,30.3310618 C18.2685162,30.4607404 18.8680314,30.4820993 19.611616,30.4820993 C19.9276395,30.4820993 20.2638017,30.4775224 20.6619294,30.4775224 L20.6665768,30.479048 Z M16.1105716,27.1943653 L14.1276792,28.8176363 C13.6675862,29.3409276 11.6676533,30.9840317 9.94656459,32.0504475 C10.9937797,29.1105574 10.9488547,28.1783971 10.9488547,28.1783971 L11.0944734,26.3110252 L9.40591658,25.4627746 C5.11326431,23.3009561 3.1845916,18.8003458 3.1845916,14.859642 C3.1845916,8.29637917 10.8760454,3.05278682 20.3304145,3.05278682 C29.7847836,3.05278682 37.2825956,8.29637917 37.2825956,14.859642 C37.2531621,22.1353743 30.2200905,27.476607 20.7672705,27.476607 C20.7672705,27.476607 19.3250261,27.5315297 17.8440533,27.3164158 L16.1136699,27.1974166 L16.1105716,27.1943653 Z M49.6911646,27.1821603 C49.6911646,23.0477014 48.050631,19.8942229 43.9578171,17.5264443 C43.8586725,18.6264239 43.5395507,19.807262 43.1925445,20.8431652 C45.8384666,22.6449349 46.5928952,24.4939992 46.5928952,27.1821603 C46.5928952,30.4729455 45.0360148,32.8590317 41.4172362,34.6836859 L39.8758471,35.4373474 C39.8758471,35.4373474 40.0369571,39.3475386 40.2739747,40.3361473 C37.2516129,38.1544955 36.2121435,36.331367 36.2121435,36.331367 L34.5824538,36.5785191 C33.9380138,36.6715826 32.1952373,36.6715826 32.1952373,36.6715826 C27.9862383,36.6715826 24.8678301,35.682974 22.2064167,33.6325264 C22.9283134,33.5882832 17.8889782,33.5913344 17.7758914,33.6874491 C20.8524729,37.388629 25.8825133,39.7228438 32.1952373,39.7228438 C32.537596,39.7228438 32.8288333,39.725895 33.1014811,39.725895 C33.744372,39.725895 34.2633321,39.7075875 35.0301538,39.5977421 C35.779935,40.4932872 39.9796392,44.4370423 43.3970303,44.9862693 C43.3954812,44.9832181 43.4001286,44.9832181 43.4156199,44.9832181 C43.4605448,44.9832181 43.5937704,45 43.6743254,45 C44.2242683,45 44.6657716,44.5651953 44.6657716,44.0251221 C44.6657716,43.8878153 44.6347889,43.7581367 44.5852166,43.6406631 L44.5883149,43.6406631 C43.945424,42.5498373 42.9353882,39.3612693 42.9353882,37.4313466 C42.9353882,37.400834 42.9260934,37.3810008 42.9260934,37.3535395 C47.5502605,35.0254272 49.6911646,31.6278478 49.6911646,27.1852116 L49.6911646,27.1821603 Z" id="Shape"></path>
                    </g>
                    <path d="M312.773225,63.7693629 C312.730575,63.4159465 312.599648,63.0924806 312.398299,62.8189323 L312.403258,62.8189323 L312.376478,62.7919768 C312.275307,62.6571993 312.155291,62.5383955 312.022381,62.4325702 L306.840858,57.1792445 L306.840858,53.9575642 C306.840858,53.4054758 306.396501,52.9592127 305.84899,52.9592127 L302.708733,52.9592127 L299.088413,49.8483494 C297.965617,48.7182154 296.003701,48.7162187 294.879914,49.8483494 L291.271495,52.9592127 L287.995353,52.9592127 C287.446849,52.9592127 287.003484,53.4054758 287.003484,53.9575642 L287.003484,57.2451357 L281.946937,62.3347318 C281.409345,62.6921416 281.052272,63.3051294 281.052272,63.9989838 L281.052272,78.9582829 C281.052272,80.0554712 281.944954,80.9549859 283.036009,80.9549859 L310.808333,80.9549859 C311.898397,80.9549859 312.792071,80.0554712 312.792071,78.9582829 L312.792071,64.0379195 C312.799014,63.9480678 312.790087,63.8582162 312.772233,63.7693629 L312.773225,63.7693629 Z M289.387937,71.6383695 L283.036009,77.5685776 L283.036009,65.9976835 L289.387937,71.6393679 L289.387937,71.6383695 Z M291.300259,72.5748233 C291.431186,72.5189156 291.552194,72.4330574 291.652373,72.3182469 C291.704942,72.2573475 291.7466,72.1914563 291.783299,72.1235684 L296.057262,68.132159 C296.281424,67.9494607 296.548237,67.853619 296.827944,67.853619 C297.11261,67.853619 297.397276,67.9544525 297.588707,68.1032068 L309.486172,78.9582829 L284.462316,78.9582829 L291.299268,72.5748233 L291.300259,72.5748233 Z M304.55956,71.7701519 L310.808333,66.189367 L310.808333,77.4717375 L304.55956,71.7711503 L304.55956,71.7701519 Z M308.887084,62.0022807 L308.857328,62.0022807 L310.558382,63.7434058 L306.84185,67.0639229 L306.84185,59.9446782 L308.888075,62.0032791 L308.887084,62.0022807 Z M296.281424,51.2600184 C296.469879,51.0723283 296.718838,50.9675014 296.982675,50.9675014 C297.246512,50.9675014 297.496463,51.0723283 297.684918,51.2600184 L299.688493,52.9592127 L294.281817,52.9592127 L296.282416,51.2600184 L296.281424,51.2600184 Z M304.857121,54.9559157 L304.857121,68.8349985 L303.080684,70.4223774 L298.855323,66.5677422 C297.687894,65.6462638 296.010644,65.6063297 294.773784,66.6106713 L290.848959,70.2746214 L288.987222,68.6203529 L288.987222,54.9559157 L304.857121,54.9559157 L304.857121,54.9559157 Z M284.270886,62.8189323 L287.003484,60.0694722 L287.003484,66.8582625 L283.389115,63.647564 L284.226252,62.8179339 L284.271878,62.8179339 L284.270886,62.8189323 Z" id="Shape" fill="#FFFFFF" opacity="0.4"></path>
                    <path d="M100.483693,202.65383 L100.491654,202.65383 L100.483693,202.65383 Z M100.483693,202.65383 L97.4901723,218.384409 L108.336376,218.420235 L93.571792,239.746415 L96.5666394,222.439461 L85.7204353,222.400981 L100.48502,202.652503 L100.483693,202.65383 Z M100.48502,200 C100.413366,200 100.341713,200.002654 100.271386,200.007961 C99.8029853,200.045115 99.4924872,200.201691 99.1249317,200.449824 C98.9205868,200.58517 98.7334917,200.752361 98.5689543,200.944764 C98.5198584,201.001821 98.4747433,201.061532 98.432282,201.12257 L83.5615444,220.802048 C82.9750479,221.607486 82.8874715,222.669018 83.3386227,223.556724 C83.7897738,224.44443 84.7000376,225.007042 85.6992047,225.015004 L93.3594856,225.070734 L90.9511346,239.260764 C90.7229052,240.480199 91.3730936,241.695653 92.5168945,242.185285 C92.8579116,242.331246 93.2161787,242.401572 93.5691381,242.401572 C94.4037677,242.401572 95.0884559,242.011459 95.603299,241.306867 L110.491286,219.980688 C111.077783,219.17525 111.164032,218.112391 110.714208,217.226012 C110.264384,216.339633 109.352793,215.775694 108.353626,215.769059 L100.693345,215.75579 L103.076485,203.280134 C103.126908,203.07977 103.152119,202.871444 103.152119,202.656484 C103.152119,201.220762 102.009645,200.050423 100.579231,200.003981 C100.547385,200.002654 100.516866,200.002654 100.48502,200.002654 L100.48502,200.002654 L100.48502,200 Z" id="Shape" fill="#FFFFFF" opacity="0.4"></path>
                    <path d="M537.446327,25.002 C539.098327,25.002 540.591327,25.678 541.641327,26.763 C542.949327,26.51 544.181327,26.049 545.289327,25.41 C544.861327,26.711 543.949327,27.803 542.763327,28.493 C543.923327,28.357 545.033327,28.059 546.064327,27.613 C545.291327,28.73 544.319327,29.713 543.196327,30.499 C543.207327,30.738 543.213327,30.978 543.213327,31.219 C543.213327,38.586 537.431327,47.082 526.859327,47.082 C523.614327,47.082 520.591327,46.156 518.050327,44.575 C518.499327,44.627 518.956327,44.654 519.420327,44.654 C522.112327,44.654 524.592327,43.764 526.559327,42.267 C524.042327,42.224 521.918327,40.61 521.190327,38.397 C521.541327,38.463 521.901327,38.498 522.272327,38.498 C522.794327,38.498 523.304327,38.431 523.785327,38.303 C521.156327,37.792 519.174327,35.539 519.174327,32.837 L519.174327,32.765 C519.950327,33.183 520.835327,33.434 521.778327,33.463 C520.235327,32.462 519.220327,30.758 519.220327,28.824 C519.220327,27.802 519.504327,26.843 519.999327,26.023 C522.833327,29.394 527.068327,31.614 531.846327,31.848 C531.748327,31.441 531.697327,31.011 531.697327,30.578 C531.697327,27.499 534.271327,25.003 537.446327,25.003 L537.446327,25.002 Z M546.065327,27.615 L546.070327,27.615 L546.065327,27.615 Z M537.446327,23.002 C533.519327,23.002 530.265327,25.871 529.765327,29.578 C526.552327,28.932 523.630327,27.232 521.530327,24.736 C521.149327,24.282 520.588327,24.023 520.000327,24.023 C519.948327,24.023 519.896327,24.025 519.843327,24.029 C519.200327,24.081 518.620327,24.439 518.287327,24.991 C517.589327,26.148 517.222327,27.473 517.222327,28.824 C517.222327,29.726 517.384327,30.604 517.691327,31.425 C517.364327,31.789 517.176327,32.264 517.176327,32.766 L517.176327,32.838 C517.176327,34.797 517.950327,36.615 519.237327,37.978 C519.163327,38.321 519.179327,38.68 519.292327,39.024 C519.736327,40.373 520.543327,41.536 521.590327,42.422 C520.887327,42.579 520.161327,42.657 519.421327,42.657 C519.029327,42.657 518.649327,42.636 518.288327,42.591 C518.208327,42.581 518.129327,42.577 518.050327,42.577 C517.210327,42.577 516.447327,43.106 516.165327,43.914 C515.855327,44.799 516.199327,45.78 516.995327,46.275 C519.949327,48.113 523.361327,49.083 526.861327,49.083 C538.237327,49.083 545.080327,40.178 545.213327,31.478 C546.144327,30.707 546.967327,29.816 547.664327,28.817 C547.918327,28.483 548.069327,28.066 548.069327,27.614 C548.069327,26.933 547.729327,26.332 547.210327,25.97 C547.434327,25.201 547.178327,24.367 546.553327,23.859 C546.188327,23.562 545.740327,23.411 545.291327,23.411 C544.947327,23.411 544.602327,23.499 544.292327,23.679 C543.631327,24.06 542.924327,24.362 542.179327,24.578 C540.832327,23.564 539.162327,23 537.447327,23 L537.447327,23 L537.446327,23.002 Z" id="Shape" fill="#FFFFFF" opacity="0.4"></path>
                    <path d="M164.835878,591.736445 C162.914121,590.835621 161.09806,589.985244 159.442947,589.154084 C155.205473,587.030542 151.361959,586 147.698609,586 C140.319062,586 135.214395,590.256692 132.012267,593.458819 L116.484471,609.003432 C108.175274,617.322237 106.849261,625.789979 112.184539,636.462938 C113.013297,638.120453 113.863674,639.941318 114.764498,641.870281 C119.621739,652.25978 124.642329,663 132.860243,663 C133.090854,663 133.319062,662.992793 133.552075,662.973576 C142.031828,662.31057 144.438829,651.390185 146.56237,641.75978 C146.898678,640.234386 147.220572,638.771448 147.547271,637.459849 C148.118994,635.192176 149.240819,633.784489 152.318033,630.700069 L152.740819,630.27488 L153.000256,630.015443 L153.684882,629.333219 C156.769302,626.248799 158.176989,625.126973 160.449467,624.555251 C161.749055,624.228552 163.207189,623.906658 164.730181,623.572752 C174.355782,621.449211 185.268959,619.04221 185.929563,610.545642 C186.597374,601.926561 175.53526,596.745024 164.835878,591.736445 L164.835878,591.736445 Z M180.99305,610.113246 C180.524622,616.101922 167.117964,617.869938 159.14027,619.870968 C155.611444,620.762183 153.46388,622.631091 150.223318,625.871654 C149.997511,626.097461 149.769302,626.323267 149.541094,626.553878 C149.312885,626.782086 149.087079,627.012697 148.861272,627.236102 C145.620709,630.481469 143.756605,632.62663 142.867792,636.160261 C140.864361,644.147563 139.098746,657.568634 133.117278,658.039465 C133.009179,658.046671 132.90108,658.051476 132.792981,658.051476 C126.446379,658.051476 121.106296,643.61908 116.393187,634.204873 C111.608012,624.632121 113.657086,618.424846 119.797099,612.277625 C120.974175,611.095745 122.441917,609.632807 124.236358,607.835964 C126.069234,606.000686 128.250428,603.81709 130.835191,601.229925 C132.629632,599.433082 134.094972,597.970144 135.27445,596.788264 C139.089138,592.971174 142.925445,590.734729 147.580902,590.734729 C150.417895,590.734729 153.557566,591.563487 157.180078,593.381949 C166.748026,598.179135 181.492707,603.627316 180.990648,610.120453 L180.99305,610.113246 Z M144.984127,612.433768 L149.78852,612.433768 L149.78852,607.629375 L144.984127,607.629375 L144.984127,612.433768 L144.984127,612.433768 Z M144.984127,605.229581 L149.78852,605.229581 L149.78852,600.425189 L144.984127,600.425189 L144.984127,605.229581 L144.984127,605.229581 Z M152.190716,605.229581 L156.995109,605.229581 L156.995109,600.425189 L152.190716,600.425189 L152.190716,605.229581 L152.190716,605.229581 Z M152.190716,612.433768 L156.995109,612.433768 L156.995109,607.629375 L152.190716,607.629375 L152.190716,612.433768 L152.190716,612.433768 Z M133.806708,626.861359 L135.634779,625.033288 C136.535603,624.132464 136.535603,622.671929 135.634779,621.771105 C134.733956,620.870281 133.275823,620.870281 132.374999,621.771105 L130.546928,623.599176 L128.718856,621.771105 C127.818033,620.870281 126.3599,620.870281 125.459076,621.771105 C124.558252,622.671929 124.558252,624.132464 125.459076,625.033288 L127.287147,626.861359 L125.459076,628.68943 C124.558252,629.590254 124.558252,631.050789 125.459076,631.951613 C126.3599,632.852437 127.820435,632.852437 128.718856,631.951613 L130.546928,630.123542 L132.427847,632.004461 C133.328671,632.905285 134.786804,632.905285 135.687628,632.004461 C136.588451,631.103638 136.588451,629.643102 135.687628,628.742279 L133.806708,626.861359 L133.806708,626.861359 Z" id="Shape" fill="#FFFFFF" opacity="0.4"></path>
                    <path d="M1606,197.015 C1634.415,223.595 1656.963,257.282 1670.596,296.599 C1671.826,300.146 1672.971,303.702 1674.032,307.265" id="Page-1" stroke="#FEFEFE" stroke-width="2" stroke-dasharray="10" opacity="0.4"></path>
                    <g id="spa-rocket" opacity="0.4" transform="translate(1560.500000, 148.500000) scale(-1, 1) translate(-1560.500000, -148.500000) translate(1526.000000, 114.000000)" stroke="#FFFFFF" stroke-width="2" stroke-linecap="round" stroke-linejoin="round">
                        <path d="M68.055975,0.944025 C65.5346625,-1.5772875 49.1441625,2.204025 39.0576,12.2905875 C28.97235,22.37715 20.249475,41.185275 20.249475,41.185275 L27.814725,48.750525 C27.814725,48.750525 46.62285,40.02765 56.7094125,29.9424 C66.795975,19.8558375 70.5772875,3.4653375 68.055975,0.944025 L68.055975,0.944025 Z" id="Stroke-90"></path>
                        <polyline id="Stroke-91" points="30.084825 23.8125 16.3127625 23.8125 0.5627625 36.9375 22.3213875 36.9375"></polyline>
                        <polyline id="Stroke-92" points="45.1875 38.915175 45.1875 52.6872375 32.0625 68.4372375 32.0625 46.6786125"></polyline>
                        <path d="M16.3125,52.6875 L37.3125,31.6875" id="Stroke-93" fill="#D8D8D8"></path>
                        <path d="M58.3125,15.9375 C58.3125,18.8368125 55.9618125,21.1875 53.0625,21.1875 C50.1631875,21.1875 47.8125,18.8368125 47.8125,15.9375 C47.8125,13.0381875 50.1631875,10.6875 53.0625,10.6875 C55.9618125,10.6875 58.3125,13.0381875 58.3125,15.9375 L58.3125,15.9375 Z" id="Stroke-94"></path>
                        <path d="M24.1875,52.6875 C24.1875,67.125 0.5625,68.4375 0.5625,68.4375 C0.5625,68.4375 1.875,44.8125 16.3125,44.8125" id="Stroke-95"></path>
                    </g>
                    <g id="spa-satellite" opacity="0.4" transform="translate(379.000000, 26.000000)" stroke="#FFFFFF" stroke-width="2">
                        <path d="M15.3428,74.3438 C18.4678,71.2188 23.5328,71.2188 26.6568,74.3438 C29.7808,77.4668 29.7808,82.5328 26.6568,85.6568 L15.3428,74.3438 L15.3428,74.3438 Z" id="Stroke-451" stroke-linecap="round" stroke-linejoin="round"></path>
                        <path d="M21,80 L19,82" id="Stroke-452" stroke-linecap="round" stroke-linejoin="round"></path>
                        <polygon id="Stroke-453" stroke-linecap="round" stroke-linejoin="round" points="35 52 25 62 15 52 25 42"></polygon>
                        <polygon id="Stroke-454" stroke-linecap="round" stroke-linejoin="round" points="59 76 49 86 39 76 49 66"></polygon>
                        <path d="M13,82 C13,85.314 15.687,88 19,88" id="Stroke-455" stroke-linecap="round" stroke-linejoin="round"></path>
                        <path d="M9,82 C9,87.523 13.477,92 19,92" id="Stroke-456" stroke-linecap="round" stroke-linejoin="round"></path>
                        <path d="M5,82 C5,89.732 11.268,96 19,96" id="Stroke-457" stroke-linecap="round" stroke-linejoin="round"></path>
                        <path d="M44,71 L41.242,68.242" id="Stroke-458" stroke-linecap="round" stroke-linejoin="round"></path>
                        <path d="M32.7939,59.7207 L30.0369,56.9627" id="Stroke-459" stroke-linecap="round" stroke-linejoin="round"></path>
                        <path d="M38.7578,53.7578 C41.1008,51.4138 44.8998,51.4138 47.2418,53.7578 C49.5858,56.1008 49.5858,59.8998 47.2418,62.2418 L37.2418,72.2418 C34.8998,74.5858 31.1008,74.5858 28.7578,72.2418 C26.4138,69.8998 26.4138,66.1008 28.7578,63.7578 L38.7578,53.7578 L38.7578,53.7578 Z" id="Stroke-460" stroke-linecap="round" stroke-linejoin="round"></path>
                        <g id="spa-moon" transform="translate(753.000000, 0.000000)">
                            <path d="M36.9443,48.1992 C36.6283,47.1872 35.0533,46.7252 33.4273,47.1682 C31.8013,47.6112 30.7393,48.7892 31.0553,49.8012 C31.3723,50.8122 32.9463,51.2742 34.5723,50.8322" id="Stroke-524" stroke-linecap="round" stroke-linejoin="round"></path>
                            <path d="M32.8125,14.7715 C31.8645,12.6635 27.5975,12.3995 23.2835,14.1815 C18.9685,15.9645 16.2405,19.1195 17.1885,21.2285 C18.1355,23.3365 22.4025,23.6015 26.7165,21.8185" id="Stroke-525" stroke-linecap="round" stroke-linejoin="round"></path>
                            <path d="M17.6123,40.8721 C16.2153,41.4901 14.3603,39.8081 13.4703,37.1171 C12.5803,34.4271 12.9913,31.7451 14.3873,31.1281 C15.7853,30.5101 17.6393,32.1911 18.5293,34.8831" id="Stroke-526" stroke-linecap="round" stroke-linejoin="round"></path>
                            <path d="M46.0742,32.8984 C45.1432,33.3914 43.9072,32.0464 43.3132,29.8944 C42.7202,27.7424 42.9942,25.5954 43.9262,25.1014 C44.8562,24.6084 46.0932,25.9534 46.6862,28.1054" id="Stroke-527" stroke-linecap="round" stroke-linejoin="round"></path>
                            <path d="M57,33 C57,47.359 45.359,59 31,59 C16.641,59 5,47.359 5,33 C5,18.641 16.641,7 31,7 C45.359,7 57,18.641 57,33 L57,33 Z" id="Stroke-528"></path>
                        </g>
                    </g>
                    <g id="untitled22" opacity="0.4" transform="translate(210.877581, 148.227952) rotate(-19.000000) translate(-210.877581, -148.227952) translate(183.877581, 128.727952)" fill="#FFFFFF">
                        <path d="M49.3133824,2.42166667 C47.8598824,1.38166667 43.8095294,-2.27373675e-13 26.8386176,-2.27373675e-13 C8.65226471,-2.27373675e-13 5.95314706,1.58666667 5.08641176,2.10666667 C0.477794118,4.86 0.0402352941,17.045 -6.53699317e-13,19.515 C0.0553235294,22.7783333 0.585088235,33.6366667 5.08305882,36.3216667 C5.94644118,36.84 8.63047059,38.4166667 26.8369412,38.4166667 C43.8195882,38.4166667 47.8649118,37.0416667 49.3117059,36.005 C53.2396765,33.195 53.6906471,23.5216667 53.7023824,19.4716667 C53.6923235,16.215 53.3486471,5.31166667 49.3117059,2.42166667 L49.3133824,2.42166667 Z M47.3552647,33.3016667 C46.7701765,33.72 43.4172353,35.085 26.8369412,35.085 C10.8098824,35.085 7.44688235,33.8483333 6.8115,33.4666667 C5.19370588,32.5016667 3.48538235,27.38 3.35294118,19.5066667 C3.48538235,11.6516667 5.2155,5.91833333 6.81652941,4.96333333 C7.45358824,4.58166667 10.8283235,3.33333333 26.8402941,3.33333333 C43.4055,3.33333333 46.7685,4.70666667 47.3586176,5.12666667 C48.7953529,6.155 50.331,11.5683333 50.3544706,19.4833333 C50.331,27.5216667 48.7852941,32.28 47.3586176,33.3016667 L47.3552647,33.3016667 Z M37.7708824,17.8966667 L22.686,8.695 C22.1679706,8.38333333 21.5225294,8.37666667 20.9961176,8.67166667 C20.4697059,8.96666667 20.1427941,9.52333333 20.1427941,10.1233333 L20.1427941,28.5316667 C20.1427941,29.1316667 20.4680294,29.6883333 20.9961176,29.9833333 C21.2509412,30.1266667 21.5359412,30.1983333 21.8192647,30.1983333 C22.1176765,30.1983333 22.4194412,30.1183333 22.686,29.96 L37.7708824,20.7533333 C38.2738235,20.4516667 38.5806176,19.91 38.5806176,19.325 C38.5806176,18.74 38.2738235,18.1983333 37.7708824,17.8966667 L37.7708824,17.8966667 Z M23.4957353,25.5783333 L23.4957353,13.0733333 L33.6601765,19.325 L23.4957353,25.5783333 L23.4957353,25.5783333 Z" id="Shape"></path>
                    </g>
                    <g id="untitled45" opacity="0.4" transform="translate(186.000000, 500.000000)" fill="#FFFFFF">
                        <g id="untitled21">
                            <g id="untitled67" transform="translate(0.043744, 0.960538)">
                                <path d="M39.7059957,11.7630424 L34.2542945,1.33982874 C33.9362474,0.732421172 33.1130667,0.23477103 32.4283301,0.23477103 L19.8810608,0.23477103 C19.8673411,0.233523786 19.8536215,0.231029299 19.8399018,0.229782056 C19.8286766,0.229782056 19.8174514,0.233523786 19.8062262,0.23477103 L7.48346079,0.23477103 C6.79747688,0.23477103 5.97304895,0.731173929 5.65001289,1.33608701 L0.213278632,11.5597417 C-0.109757425,12.165902 -0.0449007647,13.1163015 0.354217144,13.6750666 L19.0641164,39.7561747 C19.2649226,40.0355572 19.5318327,40.177743 19.7974955,40.177743 C20.0619111,40.177743 20.3263267,40.0405462 20.5296274,39.7649054 L39.5463485,13.8746256 C39.9517027,13.3208495 40.0240428,12.3729444 39.7059957,11.7655369 L39.7059957,11.7630424 Z M36.7300728,11.458715 L30.0473423,11.458715 L32.7226795,3.79565112 L36.7288255,11.458715 L36.7300728,11.458715 Z M22.4254375,2.72925796 L30.4526964,2.72925796 L27.9619512,9.8585016 L22.4241902,2.72925796 L22.4254375,2.72925796 Z M26.0461853,11.458715 L14.4443266,11.458715 L19.9272088,3.58112524 L26.044938,11.458715 L26.0461853,11.458715 Z M12.2342111,10.2675975 L9.733488,2.72925796 L17.4826116,2.72925796 L12.2354584,10.2675975 L12.2342111,10.2675975 Z M26.5326102,13.9532019 L19.8274294,33.1507733 L13.4565097,13.9532019 L26.5326102,13.9532019 L26.5326102,13.9532019 Z M17.0298623,32.6394035 L3.62448951,13.9519547 L10.8285678,13.9519547 L17.0298623,32.6394035 L17.0298623,32.6394035 Z M29.1755191,13.9532019 L36.393317,13.9532019 L22.6362216,32.6843042 L29.1767664,13.9532019 L29.1755191,13.9532019 Z M7.34626401,3.45889539 L10.0003981,11.4574677 L3.09191655,11.4574677 L7.34626401,3.45889539 L7.34626401,3.45889539 Z" id="Shape"></path>
                            </g>
                        </g>
                    </g>
                    <g id="Group-2" opacity="0.4" transform="translate(135.000000, 698.000000)" fill="#FFFFFF">
                        <path d="M17.6180476,34.9956264 C16.920521,34.9956264 16.264802,34.7266479 15.7697121,34.236801 L0.761888492,19.3227117 C-0.253595799,18.3091221 -0.253595799,16.659169 0.759688093,15.6477663 L6.25738582,10.1850984 C6.59624732,9.84723524 7.11774196,9.76741643 7.54461943,9.98937832 C7.9692965,10.2102468 8.20253883,10.6804124 8.11782346,11.1505779 C8.06171328,11.4632927 8.03640868,11.7136832 8.03640868,11.9411122 C8.03640868,14.3334895 9.99476409,16.3202124 12.4031012,16.3202124 C14.8136386,16.3202124 16.5728579,14.3334895 16.5728579,11.9411122 C16.5728579,9.54545455 14.8136386,7.59918775 12.4031012,7.59918775 C12.1775602,7.59918775 11.9256145,7.62542955 11.6109574,7.68009997 C11.1334707,7.76757263 10.6647857,7.53248985 10.4425454,7.11043424 C10.220305,6.68619182 10.3006196,6.16791628 10.6394811,5.83114652 L15.7653113,0.735863793 C16.7576914,-0.24601687 18.4751031,-0.243830053 19.4630824,0.733676976 L23.2158635,4.46547954 C23.9992056,2.04576695 26.2854205,0.288659794 28.9754087,0.288659794 C32.3112141,0.288659794 35.0254067,2.9871915 35.0254067,6.30349891 C35.0254067,8.97688222 33.2595862,11.2500781 30.822644,12.0274914 L34.4687057,15.6488597 C35.4863903,16.6635426 35.4863903,18.3124024 34.4698059,19.3248985 L19.4641826,34.2389878 C18.9679926,34.7310216 18.3122736,35 17.614747,35 L17.6180476,34.9956264 Z M6.02744409,13.5057794 L2.31757082,17.1916589 C2.15804187,17.3512965 2.15804187,17.6159013 2.31977122,17.7788191 L17.3220939,32.6896282 C17.532232,32.8962824 17.6983621,32.8995626 17.9129011,32.6874414 L32.9152237,17.7766323 C33.0758529,17.6148079 33.0758529,17.3534833 32.9141235,17.1905654 L27.6232633,11.9356451 C27.2921032,11.6065292 27.2062877,11.1046548 27.4098246,10.6858794 C27.6133615,10.267104 28.0578422,10.0189003 28.5287277,10.076851 L28.695958,10.0987192 C28.7883748,10.1107466 28.8807916,10.1260544 28.9776091,10.1260544 C31.1009945,10.1260544 32.8272078,8.41049672 32.8272078,6.3024055 C32.8272078,4.19103405 31.0998943,2.47438301 28.9776091,2.47438301 C26.855324,2.47438301 25.1291107,4.19212746 25.1291107,6.3024055 C25.1291107,6.38987816 25.1423131,6.47516401 25.1544153,6.56154327 L25.1775195,6.75616995 C25.2270285,7.21758825 24.9794835,7.65932521 24.5570069,7.85941893 C24.138931,8.05732584 23.6350395,7.9731334 23.3060798,7.6451109 L17.9107007,2.27975633 C17.6994623,2.07200875 17.5344324,2.06982193 17.3198935,2.28194314 L13.9807875,5.60043736 C16.8446072,6.30459231 18.7732572,8.87956888 18.7732572,11.9400187 C18.7732572,15.5384255 16.0249585,18.5048422 12.4031012,18.5048422 C9.32474249,18.5048422 6.73487248,16.348641 6.02744409,13.5057794 L6.02744409,13.5057794 Z" id="Shape"></path>
                    </g>
                    <g id="spa-launch" opacity="0.4" transform="translate(227.000000, 607.000000)" stroke="#FFFFFF" stroke-width="2" stroke-linecap="round" stroke-linejoin="round">
                        <path d="M96.546875,80.8958437 L75.671875,80.8958437 C75.671875,80.8958437 70.453125,65.234375 70.453125,49.5833437 C70.453125,28.703125 86.109375,13.046875 86.109375,13.046875 C86.109375,13.046875 101.765625,28.703125 101.765625,49.578125 C101.765625,65.234375 96.546875,80.8958437 96.546875,80.8958437 L96.546875,80.8958437 Z" id="Stroke-96"></path>
                        <path d="M86.109375,54.796875 L86.109375,80.890625" id="Stroke-97"></path>
                        <polyline id="Stroke-98" points="75.671875 80.890625 54.796875 80.890625 54.796875 70.453125 70.6331719 54.796875"></polyline>
                        <polyline id="Stroke-99" points="96.546875 80.890625 117.421875 80.890625 117.421875 70.453125 101.585578 54.796875"></polyline>
                        <path d="M57.5069719,117.6181 C58.7307687,102.893397 71.0705031,91.3286469 86.1083312,91.3286469 C99.30655,91.3286469 110.425097,100.234444 113.778144,112.362819" id="Stroke-100"></path>
                        <path d="M135.6875,117.421875 C135.113437,108.573484 127.718469,101.765625 118.726562,101.765625 C115.545734,101.765625 112.568437,102.642375 110.024297,104.16625" id="Stroke-101"></path>
                        <path d="M120.683594,133.083344 C120.683594,133.083344 118.074219,122.645844 105.027344,122.645844" id="Stroke-102"></path>
                        <path d="M78.9335938,122.645844 C71.1054688,120.036469 68.4960938,127.864594 68.4960938,127.864594 C68.4960938,127.864594 60.6679688,122.645844 55.4492188,127.864594 C50.2304688,133.083344 52.8398438,138.302094 52.8398438,138.302094" id="Stroke-103"></path>
                        <path d="M33.9156125,130.463009 C31.7367844,128.826931 29.0282531,127.858853 26.0927063,127.858853 C18.8882219,127.858853 13.0458313,133.701244 13.0458313,140.905728 C13.0458313,148.112822 18.8882219,153.952603 26.0927063,153.952603 L146.123956,153.952603 C153.33105,153.952603 159.170831,148.112822 159.170831,140.905728 C159.170831,127.937134 148.657659,117.421353 135.686456,117.421353 C133.319753,117.421353 131.031331,117.773619 128.875988,118.423353" id="Stroke-104"></path>
                        <path d="M59.5339344,109.193733 C56.5122781,107.776842 53.1383563,106.983592 49.5791688,106.983592 C37.4847156,106.983592 27.5247313,116.126842 26.2357,127.876858" id="Stroke-105"></path>
                    </g>
                    <path d="M638.998813,30.1548 C628.534563,30.1548 620.02375,38.7576 620.02375,49.332 C620.02375,55.9752 623.352313,62.052 628.926438,65.5848 C629.481,65.94 630.213688,65.7672 630.562813,65.2056 C630.911938,64.644 630.743313,63.9036 630.187563,63.552 C628.1795,62.2788 626.51225,60.6252 625.235688,58.7196 L626.480188,57.9936 C627.049,57.6624 627.24375,56.9292 626.914813,56.3544 C626.585875,55.7784 625.859125,55.584 625.292688,55.9152 L624.045813,56.6424 C623.13975,54.7476 622.587563,52.6752 622.439125,50.514 L623.760813,50.514 C624.416313,50.514 624.948313,49.9764 624.948313,49.314 C624.948313,48.6516 624.4175,48.114 623.760813,48.114 L622.445063,48.114 C622.601813,45.9132 623.178938,43.8276 624.09925,41.9424 L625.292688,42.6384 C625.479125,42.7476 625.683375,42.7992 625.88525,42.7992 C626.296125,42.7992 626.693938,42.5844 626.914813,42.1992 C627.24375,41.6244 627.047813,40.8912 626.480188,40.56 L625.298625,39.8712 C626.489688,38.1156 628.002563,36.5976 629.75175,35.4072 L630.420313,36.5772 C630.64,36.9636 631.039,37.1772 631.449875,37.1772 C631.65175,37.1772 631.856,37.1256 632.042438,37.0164 C632.61125,36.684 632.806,35.9508 632.477063,35.3772 L631.810875,34.212 C633.642,33.3192 635.658375,32.7624 637.784,32.6064 L637.784,34.1016 C637.784,34.7652 638.314813,35.3016 638.9715,35.3016 C639.628188,35.3016 640.159,34.7652 640.159,34.1016 L640.159,32.6016 C642.333313,32.754 644.394813,33.3288 646.259188,34.2492 L645.614375,35.376 C645.286625,35.9508 645.480188,36.684 646.049,37.0152 C646.235438,37.1244 646.439688,37.176 646.641563,37.176 C647.052438,37.176 647.45025,36.9624 647.671125,36.576 L648.312375,35.4528 C650.044938,36.6444 651.543563,38.1588 652.723938,39.9084 L651.612438,40.5576 C651.043625,40.89 650.850063,41.622 651.177813,42.1968 C651.398688,42.5832 651.7965,42.7968 652.207375,42.7968 C652.40925,42.7968 652.6135,42.7452 652.799938,42.636 L653.918563,41.9844 C654.830563,43.8696 655.400563,45.9528 655.55375,48.15 L654.249875,48.15 C653.594375,48.15 653.062375,48.6876 653.062375,49.35 C653.062375,50.0124 653.594375,50.55 654.249875,50.55 L655.55375,50.55 C655.402938,52.6824 654.863813,54.7284 653.97675,56.5992 L652.801125,55.9128 C652.234688,55.5816 651.505563,55.7796 651.179,56.352 C650.85125,56.9268 651.044813,57.66 651.613625,57.9912 L652.792813,58.6788 C651.490125,60.6384 649.770625,62.3304 647.694875,63.6216 C647.135563,63.9696 646.963375,64.71 647.306563,65.2728 C647.531,65.64 647.9205,65.844 648.318313,65.844 C648.529688,65.844 648.745813,65.7864 648.939375,65.6664 C654.596625,62.1456 657.973875,56.0376 657.973875,49.3296 C657.973875,38.7564 649.460688,30.1536 638.997625,30.1536 L638.998813,30.1548 Z M647.761375,45.5904 C648.329,45.258 648.52375,44.526 648.196,43.9512 C647.86825,43.3764 647.1415,43.1808 646.573875,43.512 L640.123375,47.2752 C639.779,47.0784 639.387125,46.9572 638.963188,46.9572 C637.654563,46.9572 636.594125,48.0288 636.594125,49.35 C636.594125,50.6724 637.654563,51.744 638.963188,51.744 C640.271813,51.744 641.33225,50.6724 641.33225,49.35 L641.33225,49.3428 L647.762563,45.5904 L647.761375,45.5904 Z" id="Shape" fill="#FFFFFF" opacity="0.4"></path>
                    <g id="Page-1" opacity="0.4" transform="translate(0.000000, 358.000000)">
                        <g id="Group-3" transform="translate(18.396825, 0.452061)">
                            <mask id="mask-2" fill="white">
                                <use xlink:href="#path-1"></use>
                            </mask>
                            <g id="Clip-2"></g>
                            <path d="M8.96022222,0.519821476 C4.30485714,0.519821476 0.531571429,4.15089163 0.530603175,8.63164193 L0.506396825,98.7103749 L144.800444,98.7492619 L144.824651,8.66955672 C144.825619,4.18880642 141.052333,0.554819743 136.396,0.553847569 L8.96215873,0.519821476 L8.96022222,0.519821476 Z M8.96215873,2.46416962 L136.396,2.49819571 C139.976603,2.49916789 142.889111,5.26694747 142.888143,8.66955672 L142.864905,96.8039415 L2.44387302,96.7669989 L2.46711111,8.63164193 C2.46807937,5.23097703 5.3805873,2.46416962 8.96022222,2.46416962 L8.96215873,2.46416962 L8.96215873,2.46416962 Z" id="Fill-1" fill="#FEFEFE" mask="url(#mask-2)"></path>
                        </g>
                        <path d="M30.3078016,10.359098 L30.2855317,94.0214821 L151.817865,94.0535639 L151.840135,10.3911798 L30.3078016,10.359098 Z M32.2443095,12.3044184 L149.902659,12.3355279 L149.882325,92.1082436 L32.2230079,92.077134 L32.2443095,12.3044184 Z" id="Fill-4" fill="#FEFEFE"></path>
                        <g id="Group-8" transform="translate(0.000000, 96.697294)">
                            <mask id="mask-4" fill="white">
                                <use xlink:href="#path-3"></use>
                            </mask>
                            <g id="Clip-7"></g>
                            <path d="M0.0030984127,0.754795949 L0.000193650794,12.5900431 L182.094876,12.6386518 L182.097781,0.803404653 L0.0030984127,0.754795949 Z M1.93960635,2.70011627 L180.161273,2.74678062 L180.158368,10.6933315 L1.93670159,10.645695 L1.93960635,2.70011627 Z" id="Fill-6" fill="#FEFEFE" mask="url(#mask-4)"></path>
                        </g>
                    </g>
                    <g id="untitled154" transform="translate(1490.000000, 571.000000)" fill="#FFFFFF" opacity="0.4">
                        <path d="M84.9095462,18.0533571 L32.8960706,72.1568026 L15.2631987,64.6174594 L84.9095462,18.0533571 Z M48.5122349,79.5722661 C48.5062407,79.5789263 48.5095708,79.5922467 48.5035766,79.5982408 C48.5035766,79.5982408 48.484262,79.6208855 48.4789339,79.6342059 L42.4521215,91.5406403 L34.0489507,73.2697215 L85.9252263,19.3094703 L48.5122349,79.5722661 Z M89.1500937,17.1489023 L76.7887678,90.921908 L50.3651017,79.6242156 L89.1500937,17.1489023 Z M12.3327119,67.7184472 L30.6982056,75.5701536 L39.5096464,94.7195524 C40.0224816,95.8358015 41.1300723,96.5610969 42.3602108,96.5837416 L42.4188205,96.5837416 C43.6276463,96.5837416 44.7305749,95.9044015 45.2787091,94.8241175 L50.6934494,84.1211807 L76.151387,95.0059409 C76.5509988,95.17844 76.9799155,95.2630245 77.4081662,95.2630245 C77.9389839,95.2630245 78.4678035,95.1331507 78.9433416,94.8694069 C79.8065032,94.400529 80.4052549,93.558014 80.5670977,92.5882893 L93.7709385,13.8068154 C93.9840648,12.544708 93.4246083,11.2819347 92.3516505,10.585278 C91.8221648,10.2436099 91.2167529,10.0751069 90.612673,10.0751069 C89.9932747,10.0751069 89.3698802,10.2536002 88.8324023,10.6145829 L11.8105525,62.1118932 C10.8341676,62.7625945 10.2926936,63.8981581 10.4032528,65.0696868 C10.50915,66.2412155 11.2504299,67.2562295 12.3327119,67.7184472 L12.3327119,67.7184472 Z" id="Page-1" transform="translate(52.102398, 53.329424) rotate(16.000000) translate(-52.102398, -53.329424) "></path>
                    </g>
                </g>
            </g>
        </g>
    </g>
</svg>