<?xml version="1.0" encoding="UTF-8" standalone="no"?>
<svg width="137px" height="162px" viewBox="0 0 137 162" version="1.1" xmlns="http://www.w3.org/2000/svg" xmlns:xlink="http://www.w3.org/1999/xlink">
    <!-- Generator: Sketch 39.1 (31720) - http://www.bohemiancoding.com/sketch -->
    <title>Oggy</title>
    <desc>Created with Sketch.</desc>
    <defs>
        <path d="M18.8558351,172.049802 C19.1471456,180.506203 18.8420444,188.213547 16.2018067,194.661588 C11.9511626,205.08563 1.91134586,203.280771 0,214.466662 C14.6659038,221.178197 33.986775,214.635962 39.988611,199.610589 C40.6188139,198.030762 41.1428378,196.359982 41.5749556,194.611815 C43.7272574,195.914068 45.957933,197.099809 48.2582371,198.160304 C47.7908385,200.817014 47.1970961,203.378777 46.4525307,205.82934 C43.7167856,214.853634 36.5203584,218.215448 37.8120922,228.095311 C56.703789,230.796836 65.907588,220.458228 70.2771351,204.057886 C72.3492808,204.248882 74.4484768,204.346502 76.5704762,204.346502 C78.9026503,204.346502 81.2072285,204.228608 83.4785823,203.998457 C87.597183,220.143412 96.5047515,230.332716 115.628548,228.095311 C117.841824,218.823114 109.77899,214.853634 106.977608,204.565637 C106.398164,202.428047 105.913116,200.190427 105.510339,197.867425 C107.844742,196.761978 110.105766,195.526933 112.284133,194.171579 C112.314814,194.335453 112.34617,194.498792 112.37821,194.661588 C115.460518,210.342999 142.531791,226.889048 153.451142,212.005766 C148.987835,204.130294 142.371637,203.879367 138.315278,194.661588 C135.735906,188.800588 134.739521,180.798243 134.506218,171.687206 C140.701614,161.463686 144.267777,149.468874 144.267777,136.640811 L144.267777,67.9863324 L144.098732,67.9863324 C141.734842,30.0128452 112.397974,0 76.5551283,0 C40.7122826,0 11.3754142,30.0128452 9.01152456,67.9863324 L8.87317598,67.9863324 L8.87317598,71.3717657 C8.86296112,71.89337 8.85782808,72.4163212 8.85782808,72.940564 C8.85782808,73.4648069 8.86296112,73.9921995 8.87317598,74.5225709 L8.87317598,136.640811 C8.87317598,149.622096 12.5245043,161.748581 18.8558318,172.049796 Z" id="path-1"></path>
        <path d="M0.314681003,6.83287438 C0.397885515,-2.17846286 11.0023504,0.844271149 11.0023504,0.844271149 C27.1851245,10.5964743 61.3841243,7.54906434 68.7113681,1.45342564 C69.7974933,0.550337732 71.4734404,0.142597225 73.4004104,0.142597225 C84.1206643,0.142597225 102.616212,12.7664321 70.5629458,22.9914744 L16.4712492,22.9914744 C5.92947808,18.3582214 0.374735976,11.4320259 0.314681003,7.01212821 L0.314681003,6.83287438 L0.314681003,6.83287438 Z" id="path-3"></path>
        <path d="M0.0234535362,0.764495635 C0.225438135,0.812192232 0.337978554,0.844271149 0.337978554,0.844271149 C16.5207526,10.5964743 50.7197525,7.54906434 58.0469962,1.45342564 C59.1331215,0.550337732 60.8090686,0.142597225 62.7360385,0.142597225 C63.9514779,0.142597225 65.2668651,0.30487079 66.5971974,0.607523642 L66.5971974,13.6707889 L0.0234535362,13.6707889 L0.0234535362,0.764495635 L0.0234535362,0.764495635 Z" id="path-5"></path>
        <filter x="-50%" y="-50%" width="200%" height="200%" filterUnits="objectBoundingBox" id="filter-7">
            <feOffset dx="0" dy="0" in="SourceAlpha" result="shadowOffsetOuter1"></feOffset>
            <feGaussianBlur stdDeviation="2" in="shadowOffsetOuter1" result="shadowBlurOuter1"></feGaussianBlur>
            <feColorMatrix values="0 0 0 0 0   0 0 0 0 0   0 0 0 0 0  0 0 0 0.5 0" type="matrix" in="shadowBlurOuter1" result="shadowMatrixOuter1"></feColorMatrix>
            <feMerge>
                <feMergeNode in="shadowMatrixOuter1"></feMergeNode>
                <feMergeNode in="SourceGraphic"></feMergeNode>
            </feMerge>
        </filter>
        <polygon id="path-8" points="33.1881042 34.1535781 33.1881042 0.404161901 0.000186586294 0.404161901 0.000186586294 34.1535781 33.1881042 34.1535781"></polygon>
    </defs>
    <g id="Symbols" stroke="none" stroke-width="1" fill="none" fill-rule="evenodd">
        <g id="Sections-/-hero-cover" transform="translate(-732.000000, -538.000000)">
            <g id="Group-4" transform="translate(-112.000000, -49.000000)">
                <g id="HEADER" transform="translate(112.000000, 49.000000)">
                    <g id="Oggy" transform="translate(724.000000, 538.000000)">
                        <mask id="mask-2" fill="white">
                            <use xlink:href="#path-1"></use>
                        </mask>
                        <use id="Combined-Shape" fill="#62B651" xlink:href="#path-1"></use>
                        <path d="M14.1869924,112.807873 C22.0222519,112.807873 28.3739848,103.565831 28.3739848,92.165195 C28.3739848,80.7645589 22.0222519,71.5225172 14.1869924,71.5225172 C6.35173285,71.5225172 0,80.7645589 0,92.165195 C0,103.565831 6.35173285,112.807873 14.1869924,112.807873 Z" id="Oval" fill="#2A3E50" opacity="0.05" mask="url(#mask-2)"></path>
                        <g id="Smile" mask="url(#mask-2)">
                            <g transform="translate(34.743655, 127.344970)">
                                <g id="Group-6">
                                    <mask id="mask-4" fill="white">
                                        <use xlink:href="#path-3"></use>
                                    </mask>
                                    <g id="Clip-5"></g>
                                    <path d="M11.0020223,0.722030873 C11.0020223,0.722030873 0.314681003,-1.79400643 0.314681003,5.75328673 C0.314681003,13.3005799 24.1306843,29.9041336 67.1843941,19.8416219 C110.238924,9.77829141 76.0391041,-3.80650877 68.7118603,1.22474708 C61.3837962,6.25682169 27.1856167,8.77204024 11.0020223,0.722030873" id="Fill-4" fill="#2A3F4F" mask="url(#mask-4)"></path>
                                </g>
                                <g id="Group-9" transform="translate(10.664372, 0.000000)">
                                    <mask id="mask-6" fill="white">
                                        <use xlink:href="#path-5"></use>
                                    </mask>
                                    <g id="Clip-8"></g>
                                    <path d="M9.19252464,4.50116299 C9.19252464,4.50116299 6.13923281,1.14835692 9.19252451,2.97745791 C12.2458162,4.80574015 9.19252446,0.843779896 9.19252446,0.843779896 L13.7732823,4.19658587 C13.7732823,4.19658587 11.0345785,6.63484008 14.610732,9.98682811 C18.1868856,13.3388161 20.4901959,3.58661262 20.4901959,3.58661262 L24.1546381,4.80574036 C24.1546381,4.80574036 24.1521585,12.7296616 27.8166007,13.3388161 C31.4810429,13.9479706 30.2612215,4.50116312 30.2612215,4.50116312 L35.7574747,5.11031761 C35.7574747,5.11031761 34.5351736,13.3388158 37.5892857,13.3388158 C38.612687,13.3388158 39.0638175,13.9328752 40.244924,13.3388161 C42.5885652,12.1600389 45.3202194,8.65118831 43.695869,2.97745813 C41.2537279,-5.5556173 47.3603113,3.89200862 47.3603113,3.89200862 C47.3603113,3.89200862 47.6671161,7.48311042 50.4144233,9.98682857 C53.1617305,12.4905467 53.1617295,0.53920265 53.1617295,0.53920265 L58.0468322,1.45375314 C58.0468322,1.45375314 54.3832105,1.4537532 58.0468324,-0.984502285 C61.7112747,-3.42193901 51.6972099,0.539202602 51.6972099,0.539202602 L9.94601183,1.45375308 L7.94078722,-0.199884956 L9.19252457,2.35773527 L9.19252457,2.97745791" id="Fill-7" fill="#FEFEFE" mask="url(#mask-6)"></path>
                                </g>
                            </g>
                        </g>
                        <path d="M143.896637,119.785679 C151.731897,119.785679 158.08363,110.543638 158.08363,99.1430015 C158.08363,87.7423654 151.731897,78.5003238 143.896637,78.5003238 C136.061378,78.5003238 129.709645,87.7423654 129.709645,99.1430015 C129.709645,110.543638 136.061378,119.785679 143.896637,119.785679 Z" id="Oval" fill="#2A3E50" opacity="0.05" mask="url(#mask-2)"></path>
                        <g id="eye" filter="url(#filter-7)" mask="url(#mask-2)">
                            <g transform="translate(34.934783, 13.374129)">
                                <path d="M10.9512342,31.7621801 C-1.23955343,49.0201001 2.68476245,73.0194135 19.7113049,85.370369 C36.7454233,97.7260478 60.43934,93.7478109 72.6312931,76.4946142 C84.8191669,59.2372847 80.8995131,35.2391521 63.8683086,22.8852445 C46.8341902,10.5295657 23.1466839,14.5060314 10.9512342,31.7621801 Z" id="Fill-21" fill="#F3F9F8" fill-rule="evenodd"></path>
                                <path d="M71.418071,77.0150171 C59.3035376,94.0077205 35.760079,97.9251774 18.8341285,85.7564643 C1.91570574,73.592403 -1.98369046,49.9562462 10.1296848,32.9594724 C22.2476926,15.9644431 45.7842025,12.0481491 62.7107321,24.2168623 C79.6337873,36.383831 83.528551,60.0188248 71.418071,77.0150171 M8.13481996,30.7661152 C-5.18821356,49.4515182 -0.900267486,75.4432662 17.7084341,88.8197213 C36.3159775,102.200828 62.2000003,97.8943588 75.5207176,79.2107002 C88.8437511,60.5206454 84.5558051,34.5288974 65.9505779,21.1547682 C47.3401392,7.778313 21.4538,12.0789678 8.13481996,30.7661152" id="Fill-51" fill="#FFFFFF" fill-rule="evenodd" transform="translate(41.827874, 54.988162) rotate(-270.000000) translate(-41.827874, -54.988162) "></path>
                                <g id="Page-1" stroke-width="1" fill="none" fill-rule="evenodd" transform="translate(25.287552, 37.796452)">
                                    <g id="Group-3" transform="translate(0.000000, 0.291768)">
                                        <mask id="mask-9" fill="white">
                                            <use xlink:href="#path-8"></use>
                                        </mask>
                                        <g id="Clip-2"></g>
                                        <path d="M33.1882908,17.2793444 C33.1882908,26.5997353 25.7584246,34.1535781 16.5933058,34.1535781 C7.42818697,34.1535781 0.000186586294,26.5997353 0.000186586294,17.2793444 C0.000186586294,7.95895349 7.42818697,0.403213164 16.5933058,0.403213164 C25.7584246,0.403213164 33.1882908,7.95895349 33.1882908,17.2793444" id="Fill-1" fill="#62B651" mask="url(#mask-9)"></path>
                                    </g>
                                    <path d="M29.0940277,17.5155166 C29.0940277,24.5285794 23.5039024,30.2134107 16.6095388,30.2134107 C9.71330932,30.2134107 4.12318394,24.5285794 4.12318394,17.5155166 C4.12318394,10.5043512 9.71330932,4.81951998 16.6095388,4.81951998 C23.5039024,4.81951998 29.0940277,10.5043512 29.0940277,17.5155166" id="Fill-4" fill="#2A3E50"></path>
                                    <path d="M13.6166946,14.2987294 C15.9284988,10.6726571 15.9098402,6.48113771 13.5681822,4.93849158 C11.2246583,3.39394798 7.45561516,5.08459706 5.14194511,8.71066933 C2.82827505,12.3367416 2.85066541,16.5263636 5.19045754,18.0728046 C7.53211554,19.6135533 11.3030246,17.9248017 13.6166946,14.2987294" id="Fill-6" fill="#FFFFFF"></path>
                                </g>
                                <path d="M15.7687103,35.3378288 C15.9160066,34.9172259 27.3937805,6.93336718 66.6948452,13.0913373 C68.5919935,13.388596 71.3649563,14.4008418 71.2036318,16.5561051 C71.0376311,18.7139809 67.7537401,19.588093 65.8646063,19.4156719 C28.2642973,15.8366285 15.1642767,51.9614547 15.0380227,52.3271964 C14.4955982,53.8711487 13.1746073,54.8142397 11.7741233,54.8142397 C10.0879643,53.9093408 15.0602851,37.3520204 15.7687103,35.3378288 Z" id="Page-1" fill="none" transform="translate(41.318830, 33.510330) rotate(-331.000000) translate(-41.318830, -33.510330) "></path>
                            </g>
                        </g>
                    </g>
                </g>
            </g>
        </g>
    </g>
</svg>