<?xml version="1.0" encoding="UTF-8" standalone="no"?>
<svg width="61px" height="61px" viewBox="0 0 61 61" version="1.1" xmlns="http://www.w3.org/2000/svg" xmlns:xlink="http://www.w3.org/1999/xlink">
    <!-- Generator: Sketch 39.1 (31720) - http://www.bohemiancoding.com/sketch -->
    <title>Oval 117</title>
    <desc>Created with Sketch.</desc>
    <defs></defs>
    <g id="Symbols" stroke="none" stroke-width="1" fill="none" fill-rule="evenodd">
        <g id="UI-/-cover" transform="translate(-864.000000, -474.000000)" fill="#FFFFFF">
            <g id="Group-4">
                <g id="HEADER" transform="translate(94.000000, 23.000000)">
                    <path d="M800.5,512 C817.344685,512 831,498.344685 831,481.5 C831,464.655315 817.344685,451 800.5,451 C783.655315,451 770,464.655315 770,481.5 C770,498.344685 783.655315,512 800.5,512 Z M807.697984,483.698312 C807.304355,483.299041 806.665968,483.299041 806.272339,483.698312 L801.541613,488.495866 L801.541613,471.022305 C801.541613,470.457747 801.090161,470 800.533548,470 C799.976774,470 799.525484,470.457747 799.525484,471.022305 L799.525484,488.495866 L794.794758,483.698476 C794.400968,483.299286 793.762742,483.299286 793.369113,483.698476 C792.975323,484.097747 792.975323,484.744989 793.369113,485.14426 L799.820726,491.686848 C800.017419,491.886401 800.275565,491.98626 800.533548,491.98626 C800.791532,491.98626 801.049435,491.886401 801.246371,491.686848 L807.697984,485.144097 C808.091694,484.744825 808.091694,484.097584 807.697984,483.698312 Z" id="Oval-117"></path>
                </g>
            </g>
        </g>
    </g>
</svg>